<?xml version="1.0" encoding="iso-8859-1"?>
<!-- Uploaded to: SVG Repo, www.svgrepo.com, Generator: SVG Repo Mixer Tools -->
<svg fill="#000000" height="800px" width="800px" version="1.1" id="Layer_1" xmlns="http://www.w3.org/2000/svg" xmlns:xlink="http://www.w3.org/1999/xlink" 
	 viewBox="0 0 512.001 512.001" xml:space="preserve">
<g>
	<g>
		<path d="M474.685,372.728c-0.004-0.002-0.007-0.003-0.01-0.005c-18.378-10.625-24.694-34.213-14.075-52.593
			c7.342-12.738,9.29-27.562,5.486-41.744c-2.274-8.451-6.409-16.059-12.1-22.403c15.425-17.369,18.513-43.434,6.577-64.175
			c-5.122-8.89-6.481-19.245-3.825-29.155c2.671-9.945,9.045-18.25,17.947-23.391c3.946-2.278,5.298-7.324,3.02-11.27
			c-2.278-3.947-7.326-5.298-11.27-3.02c-0.012,0.007-0.023,0.013-0.035,0.02c-18.38,10.587-41.95,4.266-52.556-14.104
			c-7.351-12.732-19.214-21.833-33.4-25.624c-8.442-2.262-17.103-2.49-25.473-0.73c-7.32-22.05-28.344-37.76-52.269-37.787
			c-10.276-0.017-19.93-4.021-27.178-11.268c-7.269-7.287-11.274-16.957-11.275-27.227c0-4.557-3.695-8.25-8.251-8.25
			c-4.557,0-8.25,3.694-8.251,8.251c0,10.28-4.003,19.947-11.274,27.217c-7.272,7.272-16.938,11.276-27.227,11.276h-0.003
			c-14.693,0.007-28.506,5.726-38.899,16.113c-6.18,6.193-10.702,13.582-13.353,21.692c-22.756-4.684-46.868,5.669-58.855,26.377
			c-5.15,8.889-13.442,15.245-23.349,17.897c-9.947,2.661-20.323,1.297-29.222-3.841c-0.001,0-0.002-0.001-0.003-0.002
			c-3.945-2.276-8.991-0.924-11.269,3.022c-2.277,3.946-0.926,8.991,3.02,11.269c0.01,0.005,0.02,0.011,0.03,0.018
			c8.891,5.138,15.25,13.431,17.908,23.355c2.661,9.933,1.297,20.31-3.84,29.213c-7.353,12.723-9.305,27.545-5.496,41.743
			c2.275,8.456,6.41,16.069,12.099,22.418c-15.422,17.366-18.51,43.425-6.581,64.156c5.117,8.896,6.474,19.262,3.826,29.17
			c-2.679,9.943-9.052,18.246-17.946,23.381c-3.946,2.278-5.298,7.324-3.02,11.27c2.278,3.947,7.326,5.299,11.27,3.02l0.012-0.007
			c8.903-5.135,19.275-6.499,29.204-3.838c9.935,2.661,18.238,9.032,23.379,17.938c7.341,12.716,19.198,21.818,33.397,25.632
			c4.735,1.264,9.534,1.894,14.314,1.894c3.747,0,7.478-0.402,11.154-1.173c7.326,22.043,28.352,37.752,52.282,37.789
			c10.255,0.009,19.902,4.012,27.16,11.268c7.271,7.279,11.276,16.95,11.276,27.233c0,4.557,3.694,8.25,8.251,8.25
			s8.251-3.693,8.251-8.251c0.001-21.236,17.254-38.516,38.509-38.504c14.681,0,28.489-5.719,38.883-16.106
			c6.182-6.182,10.708-13.567,13.367-21.697c22.76,4.684,46.876-5.669,58.862-26.372c5.15-8.889,13.442-15.245,23.347-17.897
			c9.942-2.657,20.316-1.292,29.214,3.847c3.946,2.279,8.991,0.927,11.272-3.018C479.981,380.053,478.63,375.007,474.685,372.728z
			 M446.263,200.041c8.476,14.729,6.153,33.278-5.021,45.435c-0.261-0.156-0.518-0.318-0.781-0.47l-52.613-30.381
			c-8.06-4.654-16.699-8.135-25.635-10.428l78.461-45.3C437.063,172.906,439.035,187.496,446.263,200.041z M357.749,162.491
			l0.001-60.734c0-0.312-0.011-0.625-0.016-0.937c6.047-1.372,12.324-1.258,18.445,0.382c9.928,2.653,18.23,9.023,23.375,17.935
			c7.488,12.971,19.505,21.724,32.909,25.447l-78.462,45.299C356.477,181.008,357.75,171.788,357.749,162.491z M264.253,47.52
			c10.316,10.116,23.936,15.703,38.428,15.726c16.987,0.02,31.878,11.3,36.818,27.07c-0.264,0.146-0.53,0.287-0.792,0.439
			l-52.609,30.374c-8.063,4.654-15.395,10.394-21.846,16.98V47.52z M263.151,166.579c7.43-12.892,18.219-23.668,31.199-31.162
			l46.9-27.078l-0.001,54.153c0.002,14.977-3.941,29.71-11.399,42.608c-0.481,0.832-0.789,1.729-0.957,2.646
			c-14.752-22.21-39.368-37.314-67.549-39.019C262.051,168.124,262.673,167.41,263.151,166.579z M182.019,74.521
			c7.272-7.267,16.944-11.272,27.229-11.276c0.001,0,0.003,0,0.004,0c14.509,0,28.155-5.588,38.497-15.734v90.593
			c-6.453-6.588-13.785-12.329-21.846-16.98l-52.589-30.36c-0.275-0.16-0.554-0.308-0.832-0.462
			C174.309,84.388,177.542,79.007,182.019,74.521z M170.754,108.337l46.902,27.079c12.972,7.486,23.76,18.263,31.197,31.166
			c0.479,0.831,1.1,1.543,1.807,2.146c-28.187,1.71-52.805,16.823-67.554,39.042c-0.166-0.927-0.476-1.834-0.963-2.674
			c-7.455-12.892-11.394-27.623-11.391-42.602L170.754,108.337z M112.419,119.194c8.508-14.698,25.715-21.957,41.85-18.352
			c-0.004,0.301-0.015,0.605-0.015,0.905l-0.001,60.744c-0.002,9.297,1.271,18.516,3.745,27.39l-78.424-45.272
			C93.501,140.738,105.154,131.736,112.419,119.194z M65.705,200.107c7.251-12.566,9.231-27.178,5.618-41.206l78.462,45.294
			c-8.928,2.295-17.564,5.774-25.627,10.429l-52.618,30.379c-0.267,0.154-0.527,0.318-0.791,0.476
			c-4.205-4.536-7.245-10.031-8.894-16.163C59.191,219.386,60.556,209.014,65.705,200.107z M71.328,353.085
			c3.598-14.006,1.628-28.595-5.588-41.143c-8.473-14.724-6.151-33.266,5.018-45.419c0.261,0.156,0.518,0.319,0.782,0.47
			l52.615,30.365c8.06,4.656,16.699,8.135,25.634,10.429L71.328,353.085z M154.254,349.49l-0.004,60.749
			c0,0.312,0.011,0.624,0.017,0.936c-6.042,1.371-12.319,1.257-18.435-0.377c-9.935-2.669-18.236-9.042-23.376-17.944
			c-7.255-12.568-18.922-21.59-32.883-25.475l78.43-45.281C155.526,330.975,154.253,340.193,154.254,349.49z M132.405,283.068
			L85.5,255.998l46.908-27.083c12.962-7.484,27.663-11.438,42.523-11.438c0.023,0,0.047,0,0.072,0c0.964,0,1.897-0.184,2.777-0.498
			c-5.888,11.756-9.222,25.003-9.222,39.021c0,14.005,3.328,27.243,9.207,38.991c-0.872-0.309-1.796-0.49-2.75-0.49
			c-0.021,0.001-0.047,0-0.072,0C160.065,294.501,145.358,290.548,132.405,283.068z M247.75,464.478
			c-10.33-10.131-23.949-15.719-38.42-15.731c-16.985-0.026-31.882-11.306-36.828-27.066c0.263-0.146,0.528-0.286,0.789-0.437
			l52.618-30.379c8.061-4.654,15.394-10.394,21.846-16.979L247.75,464.478z M248.858,345.412
			c-7.43,12.893-18.219,23.668-31.2,31.163l-46.908,27.082l0.004-54.168c-0.002-14.977,3.94-29.71,11.399-42.608
			c0.481-0.832,0.789-1.729,0.957-2.646c14.749,22.215,39.365,37.326,67.548,39.036
			C249.953,343.873,249.335,344.585,248.858,345.412z M185.058,255.999c0-39.121,31.828-70.949,70.949-70.949
			c39.121,0,70.949,31.828,70.949,70.949c0,39.121-31.828,70.949-70.949,70.949C216.886,326.948,185.058,295.12,185.058,255.999z
			 M329.974,437.469c-7.275,7.271-16.94,11.274-27.218,11.274c-0.003,0-0.008,0-0.012,0c-14.977,0.001-28.564,6.031-38.492,15.779
			l0.005-90.638c6.451,6.585,13.782,12.323,21.84,16.974l52.624,30.388c0.263,0.151,0.534,0.294,0.8,0.441
			C337.691,427.608,334.455,432.987,329.974,437.469z M294.347,376.566c-12.972-7.486-23.759-18.259-31.192-31.156
			c-0.477-0.827-1.096-1.539-1.801-2.141c28.184-1.71,52.8-16.822,67.549-39.038c0.167,0.923,0.476,1.826,0.96,2.663
			c7.452,12.885,11.389,27.613,11.386,42.593l0.003,54.163L294.347,376.566z M337.081,294.515c-0.023,0-0.048,0-0.074,0
			c-0.959,0-1.89,0.183-2.767,0.495c5.884-11.753,9.217-24.997,9.217-39.011c0-14.012-3.331-27.254-9.214-39.006
			c0.871,0.309,1.794,0.488,2.748,0.488c0.032,0.001,0.046,0,0.069,0c14.878,0,29.586,3.953,42.537,11.432l46.905,27.085
			l-46.9,27.078C366.638,290.562,351.938,294.515,337.081,294.515z M399.591,392.799c-8.514,14.706-25.742,21.962-41.852,18.355
			c0.005-0.304,0.018-0.607,0.018-0.911l-0.004-60.753c0.002-9.295-1.269-18.51-3.741-27.38l78.417,45.274
			C418.503,371.259,406.854,380.26,399.591,392.799z M446.307,311.88c-7.495,12.972-9.068,27.76-5.588,41.236l-78.496-45.318
			c8.929-2.295,17.566-5.775,25.629-10.43l52.609-30.374c0.268-0.155,0.529-0.319,0.794-0.479
			c4.206,4.534,7.247,10.025,8.895,16.149C452.811,292.588,451.446,302.966,446.307,311.88z"/>
	</g>
</g>
<g>
	<g>
		<path d="M256.007,205.468c-27.862,0-50.53,22.667-50.53,50.53c0,27.862,22.667,50.531,50.53,50.531s50.531-22.667,50.531-50.531
			C306.538,228.137,283.87,205.468,256.007,205.468z M256.007,290.028c-18.763,0-34.029-15.265-34.029-34.029
			s15.265-34.029,34.029-34.029c18.764,0,34.029,15.265,34.029,34.029C290.036,274.762,274.771,290.028,256.007,290.028z"/>
	</g>
</g>
<g>
	<g>
		<circle cx="384.208" cy="375.944" r="8.251"/>
	</g>
</g>
<g>
	<g>
		<circle cx="312.108" cy="356.659" r="8.251"/>
	</g>
</g>
<g>
	<g>
		<circle cx="297.114" cy="421.73" r="8.251"/>
	</g>
</g>
<g>
	<g>
		<circle cx="214.893" cy="426.68" r="8.251"/>
	</g>
</g>
<g>
	<g>
		<circle cx="199.91" cy="356.659" r="8.251"/>
	</g>
</g>
<g>
	<g>
		<circle cx="134.477" cy="375.955" r="8.251"/>
	</g>
</g>
<g>
	<g>
		<circle cx="88.251" cy="307.771" r="8.251"/>
	</g>
</g>
<g>
	<g>
		<circle cx="140.78" cy="257.178" r="8.251"/>
	</g>
</g>
<g>
	<g>
		<circle cx="91.562" cy="210.028" r="8.251"/>
	</g>
</g>
<g>
	<g>
		<circle cx="127.81" cy="136.058" r="8.251"/>
	</g>
</g>
<g>
	<g>
		<circle cx="199.91" cy="155.354" r="8.251"/>
	</g>
</g>
<g>
	<g>
		<circle cx="214.893" cy="90.272" r="8.251"/>
	</g>
</g>
<g>
	<g>
		<circle cx="297.114" cy="85.322" r="8.251"/>
	</g>
</g>
<g>
	<g>
		<circle cx="312.108" cy="155.354" r="8.251"/>
	</g>
</g>
<g>
	<g>
		<circle cx="377.531" cy="136.058" r="8.251"/>
	</g>
</g>
<g>
	<g>
		<circle cx="423.757" cy="204.231" r="8.251"/>
	</g>
</g>
<g>
	<g>
		<circle cx="371.227" cy="254.824" r="8.251"/>
	</g>
</g>
<g>
	<g>
		<circle cx="420.456" cy="301.974" r="8.251"/>
	</g>
</g>
</svg>