<?xml version="1.0" encoding="UTF-8"?>
<svg version="1.1" xmlns="http://www.w3.org/2000/svg" width="844" height="312">
<path d="M0 0 C278.52 0 557.04 0 844 0 C844 102.96 844 205.92 844 312 C565.48 312 286.96 312 0 312 C0 209.04 0 106.08 0 0 Z " fill="#E0E0E0" transform="translate(0,0)"/>
<path d="M0 0 C1.65 0.33 3.3 0.66 5 1 C5.33278057 15.9917646 1.31421671 31.29398479 -5.00390625 44.83984375 C-7.32238161 49.86775307 -9.26977279 55.06361474 -11.22265625 60.2421875 C-14.90274577 69.98823499 -14.90274577 69.98823499 -17 73.9375 C-19.46445936 78.62792266 -21.04586698 83.63048302 -22.78125 88.625 C-23.75104181 91.31057733 -24.78822955 93.85760163 -26 96.4375 C-28.40086214 101.62802787 -30.07435006 107.06554218 -31.84765625 112.4921875 C-33.76536495 118.32982281 -35.9811795 123.96755467 -38.375 129.625 C-40.26914455 134.1186162 -41.959943 138.64449772 -43.5625 143.25 C-45.14864147 147.76975736 -46.85250723 152.03618301 -49.09375 156.265625 C-51.40289295 160.68484684 -53.15566267 165.37339311 -55 170 C-51.30739345 167.70569667 -47.65176195 165.35863139 -44 163 C-43.27554688 162.56816406 -42.55109375 162.13632813 -41.8046875 161.69140625 C-36.73973441 158.40021204 -34.02117598 154.26935322 -30.91308594 149.14575195 C-27.35217681 143.34479636 -23.29145523 138.00254373 -19.125 132.625 C-14.29914016 126.3888993 -9.62776524 120.12106782 -5.25 113.5625 C3.09925809 101.2249666 13.11404332 90.69706359 23.5625 80.125 C24.04537476 79.63240692 24.52824951 79.13981384 25.02575684 78.6322937 C42.77562791 60.57996217 42.77562791 60.57996217 50.125 60.4375 C53 61 53 61 54 62 C54.25659748 65.24132211 54.19028036 68.49975546 54.1875 71.75 C54.1862915 73.18013428 54.1862915 73.18013428 54.18505859 74.63916016 C54.09979228 84.51500552 52.8047888 93.50142954 50 103 C50.79019531 102.5875 51.58039063 102.175 52.39453125 101.75 C64.79175649 95.40262068 77.60005993 90.10015088 90.55078125 84.9921875 C94.83602624 83.25621903 99.0713269 81.40300908 103.3125 79.5625 C107.84035481 77.62226174 112.42163805 75.81693431 117 74 C117.78536133 73.68466309 118.57072266 73.36932617 119.37988281 73.04443359 C137.90145739 65.63349146 156.70860036 59.31307897 176.515625 56.5078125 C179.76896378 56.10187205 179.76896378 56.10187205 181.96946716 55.47613525 C185.53325414 54.64047055 189.20386536 54.86295985 192.84765625 54.859375 C194.65569408 54.84479506 196.46371895 54.82853359 198.27172852 54.81079102 C199.21750763 54.80169708 200.16328674 54.79260315 201.13772583 54.78323364 C218.38536292 54.58725208 234.4088769 53.30804084 251.28710938 49.56933594 C265.38163165 46.61141424 279.66721701 46.73764267 294 47 C294.66 48.32 295.32 49.64 296 51 C280.73592342 61.02245028 257.77058698 62.7886821 240.06689453 66.63769531 C231.02979025 68.60385517 223.19163784 70.50197572 215.4375 75.7265625 C207.28845003 81.16605335 198.84364459 85.7924456 190.125 90.25 C189.18269028 90.73235611 189.18269028 90.73235611 188.22134399 91.22445679 C185.66794638 92.53139272 183.11435608 93.83795113 180.56040955 95.14381409 C158.81403603 106.27811839 137.6279956 118.16100111 117.90380859 132.62207031 C114.05733948 135.40604975 110.14676302 138.09963394 106.25 140.8125 C96.75873027 147.44042655 87.35421808 154.18029358 78 161 C77.19079102 161.58845703 76.38158203 162.17691406 75.54785156 162.78320312 C66.15242361 169.62222619 56.90165255 176.52543778 48 184 C46.20980734 185.46014239 44.41809901 186.91842817 42.625 188.375 C35.25829688 194.40230255 28.00766328 200.56793749 20.77734375 206.7578125 C13.01409089 213.38796731 5.06073633 219.73598371 -3 226 C11.59471461 223.02738333 26.08325965 219.67633907 40.5625 216.1875 C41.66561523 215.92265808 42.76873047 215.65781616 43.90527344 215.38494873 C57.15214122 212.20213813 70.35710331 208.93639142 83.48681641 205.29711914 C91.48549454 203.09251977 99.5401092 201.22581884 107.6340332 199.40649414 C116.11566547 197.48116928 124.53008406 195.34394326 132.94445801 193.14782715 C149.88946028 188.72598846 166.89164125 184.74832712 184 181 C186.00134961 180.55779481 188.00243991 180.11442978 190.00350952 179.67095947 C205.03627461 176.34102417 220.08588083 173.10980281 235.17431641 170.04077148 C241.86693577 168.6743413 248.52332266 167.20502786 255.16650391 165.61450195 C258.39199179 164.91498851 261.57084341 164.54231253 264.8515625 164.234375 C271.34851502 163.52561654 277.65271288 161.83566865 283.9609375 160.18359375 C294.23111829 157.57118742 304.63652096 155.74354884 315.0625 153.875 C317.17707805 153.49268956 319.29157829 153.1099485 321.40600586 152.72680664 C324.74516377 152.12197821 328.08442427 151.51775816 331.42408752 150.91572571 C338.73213849 149.5973619 346.03581214 148.2569867 353.33692932 146.90075684 C358.35728294 145.96834213 363.37865133 145.0414616 368.40011597 144.11505127 C370.82935253 143.66563572 373.25817171 143.21395783 375.68655396 142.75994873 C379.09323488 142.12370274 382.50145767 141.49642653 385.91015625 140.87109375 C386.91643066 140.68092178 387.92270508 140.49074982 388.95947266 140.29481506 C394.40532726 139.30566566 399.46492454 138.80425979 405 139 C405.33 140.32 405.66 141.64 406 143 C400.43668347 145.10182804 394.78852895 146.03492115 388.953125 147.0390625 C386.6201428 147.4499602 384.2872195 147.86119239 381.9543457 148.27270508 C380.70593903 148.49149323 379.45753235 148.71028137 378.17129517 148.93569946 C301.51922601 162.40989873 224.87365386 177.23637768 149.31816101 195.96125793 C144.14869259 197.24024285 138.97138542 198.48286198 133.78930664 199.70955372 C123.32518068 202.18805856 112.88646684 204.75483817 102.46051598 207.38900375 C99.71589571 208.08203983 96.97067944 208.77267057 94.22529602 209.462677 C86.43535311 211.42062856 78.6457461 213.37988301 70.8581543 215.34716797 C51.9342594 220.1259063 33.01140983 224.89786179 13.95703125 229.1328125 C12.70323166 229.41559052 11.44943207 229.69836853 10.15763855 229.98971558 C3.49909819 231.43586191 -2.84938199 232.34622076 -9.67036438 232.49142456 C-10.43914413 232.65925446 -11.20792389 232.82708435 -12 233 C-13.30129277 234.88877166 -13.30129277 234.88877166 -14 237 C-18.53033552 241.78608027 -24.09358427 245.71884164 -29.25 249.8125 C-29.85231445 250.29275635 -30.45462891 250.7730127 -31.07519531 251.26782227 C-35.85682987 255.0232035 -38.85044453 257.34164197 -45 257 C-44.51539656 251.87704937 -42.87051506 248.81502151 -39.9375 244.625 C-39.20402344 243.56539062 -38.47054687 242.50578125 -37.71484375 241.4140625 C-37.14894531 240.61742187 -36.58304688 239.82078125 -36 239 C-44.05164407 238.89738101 -52.06535554 239.12021843 -60.09667969 239.67749023 C-61.53826966 239.76787564 -62.98126346 239.83803019 -64.42480469 239.88842773 C-69.13831516 240.05935372 -73.5170958 240.4013076 -78 242 C-81.00030588 245.35354324 -82.61312769 248.74255189 -84 253 C-85.32 252.67 -86.64 252.34 -88 252 C-87.34 248.37 -86.68 244.74 -86 241 C-87.753125 241.0825 -89.50625 241.165 -91.3125 241.25 C-100.10529912 241.22926227 -108.27736838 238.80940793 -114.828125 232.7265625 C-116.99075741 229.54028408 -116.44893856 226.71977662 -116 223 C-116.99 222.67 -117.98 222.34 -119 222 C-118.64353596 217.72243156 -117.94421396 214.5728908 -115.953125 210.75 C-115.58864258 210.04359375 -115.22416016 209.3371875 -114.84863281 208.609375 C-114.56858398 208.07828125 -114.28853516 207.5471875 -114 207 C-114.75095947 207.01571045 -115.50191895 207.0314209 -116.27563477 207.04760742 C-119.70451211 207.11027758 -123.13326855 207.14909261 -126.5625 207.1875 C-127.74392578 207.21263672 -128.92535156 207.23777344 -130.14257812 207.26367188 C-136.66547105 207.3184861 -141.19920168 206.96658276 -147 204 C-150.80402001 203.57442298 -150.80402001 203.57442298 -152.46484375 205.21484375 C-152.95082031 205.78332031 -153.43679687 206.35179687 -153.9375 206.9375 C-161.81452889 215.229984 -172.32089246 220.90620414 -182.05493164 226.76147461 C-186.64928077 229.53123428 -191.14902579 232.40313962 -195.6081543 235.38525391 C-206.39147747 242.57085829 -217.39615701 247.71922439 -230 251 C-230.95326172 251.27457031 -230.95326172 251.27457031 -231.92578125 251.5546875 C-234.4945485 252.10617425 -236.93627566 252.24461121 -239.5625 252.3125 C-240.51253906 252.34988281 -241.46257812 252.38726562 -242.44140625 252.42578125 C-245 252 -245 252 -246.82421875 250.5703125 C-248.63208656 246.61822939 -248.35406331 242.85185963 -248.25 238.5625 C-248.24484375 237.71623047 -248.2396875 236.86996094 -248.234375 235.99804688 C-248.18243155 231.85231065 -247.89224099 228.06202098 -247 224 C-247.48243164 224.37697021 -247.96486328 224.75394043 -248.46191406 225.14233398 C-282.85477242 252 -282.85477242 252 -288 252 C-287.78515625 249.6875 -287.78515625 249.6875 -287 247 C-285.05859375 245.4375 -285.05859375 245.4375 -282.4375 244 C-277.29534471 240.93871689 -272.73339837 237.50226043 -268.125 233.6875 C-262.11062758 228.7124546 -256.01471192 223.90063127 -249.76953125 219.21875 C-245.15175233 215.51931639 -241.40721984 211.38247847 -237.75 206.75 C-228.91332314 195.93517815 -217.4993903 183.98693064 -204.109375 178.90234375 C-201.39413617 177.74082492 -201.17012055 176.64612324 -200 174 C-198.69084204 172.60227322 -197.33040198 171.25179023 -195.9375 169.9375 C-191.65644512 165.75935509 -187.89963609 161.32955756 -184.16796875 156.66015625 C-182.26845113 154.32939679 -180.3004504 152.1341041 -178.25 149.9375 C-161.71097205 132.12943103 -161.71097205 132.12943103 -153.078125 110.84375 C-157.24282737 102.51434525 -168.63738721 97.09286641 -176.23876953 92.14892578 C-183.67296435 87.29928331 -190.63771753 82.21199233 -197 76 C-197.82757813 75.2575 -197.82757813 75.2575 -198.671875 74.5 C-202.3571595 70.52486167 -202.4767134 66.16752437 -202.5625 60.9375 C-202.58485718 59.90979492 -202.58485718 59.90979492 -202.60766602 58.86132812 C-202.48500548 52.85168771 -200.27943548 49.38440948 -196.21875 45.13671875 C-195.36796875 44.41935547 -195.36796875 44.41935547 -194.5 43.6875 C-193.64921875 42.95080078 -193.64921875 42.95080078 -192.78125 42.19921875 C-185.2397285 37.12192248 -169.36912419 38.81179576 -160.86425781 40.3984375 C-157.28647846 41.4291551 -154.17196865 43.08276579 -151 45 C-150.1028125 45.49242187 -149.205625 45.98484375 -148.28125 46.4921875 C-135.57390791 53.70547286 -135.57390791 53.70547286 -133 60 C-131.01191215 74.53336399 -134.11690445 87.90714563 -140.57446289 100.83886719 C-143.02274145 105.70848532 -143.02274145 105.70848532 -144 111 C-142.99116792 112.88432344 -142.99116792 112.88432344 -141.25 114.5 C-140.61320313 115.17546875 -139.97640625 115.8509375 -139.3203125 116.546875 C-138.55460938 117.35640625 -137.78890625 118.1659375 -137 119 C-135.01355147 121.22626401 -133.06679611 123.48478259 -131.125 125.75 C-130.63676758 126.30494141 -130.14853516 126.85988281 -129.64550781 127.43164062 C-125.40566067 132.36669142 -125.40566067 132.36669142 -125 136 C-124.34773437 135.6390625 -123.69546875 135.278125 -123.0234375 134.90625 C-114.3427065 130.2970123 -114.3427065 130.2970123 -109 131 C-108.26953125 132.69140625 -108.26953125 132.69140625 -108 135 C-109.51171875 137.40234375 -109.51171875 137.40234375 -111.6875 139.9375 C-112.39261719 140.77152344 -113.09773437 141.60554687 -113.82421875 142.46484375 C-115.25001936 144.12614464 -116.72099686 145.7499374 -118.23828125 147.328125 C-120.52793971 150.80068905 -120.50375523 153.79346214 -120.5 157.8125 C-120.88320995 168.72170134 -124.23130999 173.47822584 -131.54296875 181.34765625 C-134.09227601 184.09961115 -136.5692116 186.8927575 -139 189.75 C-139.7425 190.61109375 -140.485 191.4721875 -141.25 192.359375 C-143.2034312 195.30696314 -143.67338386 197.50929 -144 201 C-139.06002359 201.98171232 -134.32668125 202.1917287 -129.3125 202.1875 C-128.52246582 202.18814453 -127.73243164 202.18878906 -126.91845703 202.18945312 C-120.78905322 202.13437986 -114.96414826 201.47133173 -109 200 C-108.76539063 199.15953125 -108.53078125 198.3190625 -108.2890625 197.453125 C-106.7921 193.44308 -104.7806513 190.26390312 -102.375 186.75 C-101.92697021 186.08162109 -101.47894043 185.41324219 -101.01733398 184.72460938 C-98.55659405 181.10111183 -95.98600596 177.76851598 -93.0625 174.5 C-85.02790694 164.72296507 -80.62286081 151.79985875 -75.44921875 140.36328125 C-74.59169999 138.47110293 -73.73361956 136.57917906 -72.875 134.6875 C-72.44131104 133.72996826 -72.00762207 132.77243652 -71.56079102 131.78588867 C-66.62601916 120.99947841 -61.27871168 110.41966206 -55.92529297 99.83666992 C-52.1137013 92.29396585 -48.41512507 84.73312574 -45 77 C-44.29857007 75.42951192 -43.59675567 73.85919549 -42.89453125 72.2890625 C-42.55623291 71.53012695 -42.21793457 70.77119141 -41.86938477 69.98925781 C-39.93033642 65.65159458 -37.96693493 61.32507483 -36 57 C-35.39381836 55.66243652 -35.39381836 55.66243652 -34.77539062 54.29785156 C-26.77823437 36.74606427 -17.63932961 21.39221494 -5.29394531 6.56103516 C-3.50026775 4.39711548 -1.74867304 2.20034452 0 0 Z " fill="#111111" transform="translate(396,15)"/>
<path d="M0 0 C-0.62753174 0.31114746 -1.25506348 0.62229492 -1.90161133 0.94287109 C-15.69274316 7.78881958 -29.46414559 14.65928906 -43 22 C-43.89541504 22.48549316 -44.79083008 22.97098633 -45.71337891 23.47119141 C-59.99360676 31.26375766 -73.62840491 39.73999845 -87 49 C-87.85223145 49.58958496 -88.70446289 50.17916992 -89.58251953 50.78662109 C-94.62311446 54.28228656 -99.64374143 57.80547702 -104.65380859 61.34472656 C-106.8866343 62.92001879 -109.12405909 64.48850572 -111.36328125 66.0546875 C-133.34197817 81.45196316 -154.71373696 97.53511712 -175.16625977 114.91601562 C-178.55933659 117.79553755 -181.98263573 120.63200817 -185.4375 123.4375 C-189.61344852 126.83877981 -193.72596343 130.30500221 -197.8125 133.8125 C-198.39644531 134.31177002 -198.98039062 134.81104004 -199.58203125 135.32543945 C-202.67062625 137.97262557 -205.73045571 140.64620104 -208.7578125 143.36328125 C-209.37422607 143.90944092 -209.99063965 144.45560059 -210.62573242 145.01831055 C-211.79853452 146.05836049 -212.96337328 147.10748968 -214.1184082 148.16723633 C-217.84302185 151.449388 -220.99480211 153.09847898 -226 154 C-228.4375 153.625 -228.4375 153.625 -230 153 C-229.39414062 152.22398437 -228.78828125 151.44796875 -228.1640625 150.6484375 C-225.88545519 147.71958787 -223.63419583 144.77055206 -221.38916016 141.81591797 C-220.15328541 140.20037555 -218.89643165 138.6009307 -217.63671875 137.00390625 C-211.39930432 128.77471243 -206.6364595 119.92816573 -201.85455322 110.79547119 C-196.73839882 101.03539785 -191.25241054 91.61763022 -185.27685547 82.34887695 C-182.43980694 77.94394651 -179.71052677 73.57590385 -177.328125 68.90625 C-170.97191597 56.55518332 -170.97191597 56.55518332 -163.0625 53.75 C-161.98097656 53.49734375 -160.89945312 53.2446875 -159.78515625 52.984375 C-155.58079324 51.89098028 -151.95976863 50.2370114 -148.03588867 48.39990234 C-142.63659468 45.91019171 -137.12779557 43.68665851 -131.625 41.4375 C-130.49578125 40.96892578 -129.3665625 40.50035156 -128.203125 40.01757812 C-121.55313794 37.29747472 -114.90246625 34.98700566 -108.01611328 32.94360352 C-105.34173572 32.10691343 -102.79055387 31.16421403 -100.203125 30.09375 C-93.88521436 27.48295884 -87.40089175 25.36733633 -80.91552734 23.21826172 C-78.76638816 22.50543562 -76.61944942 21.78626251 -74.47265625 21.06640625 C-66.70053101 18.47329852 -58.91025614 16.05910889 -51.01953125 13.84912109 C-47.36375303 12.82108126 -43.74581542 11.7073749 -40.125 10.5625 C-38.7786751 10.13792801 -37.43232001 9.71345175 -36.0859375 9.2890625 C-35.41401367 9.07668945 -34.74208984 8.86431641 -34.04980469 8.64550781 C-31.98532884 7.99537988 -29.91885702 7.35204201 -27.8515625 6.7109375 C-27.17109863 6.49961182 -26.49063477 6.28828613 -25.78955078 6.07055664 C-24.44182919 5.65223702 -23.09385155 5.23474134 -21.74560547 4.81811523 C-16.59736665 3.2165689 -11.515997 1.45417767 -6.453125 -0.3984375 C-3.79557198 -1.05013044 -2.57002938 -0.74817619 0 0 Z " fill="#DCDCDC" transform="translate(603,91)"/>
<path d="M0 0 C0.99 0.495 0.99 0.495 2 1 C2.62024703 8.06009582 2.62024703 8.06009582 -0.16015625 12.2734375 C-1.10978948 13.32367873 -2.07819464 14.3571823 -3.0625 15.375 C-4.07729942 16.49722188 -5.08900704 17.6222471 -6.09765625 18.75 C-6.59410645 19.29785156 -7.09055664 19.84570312 -7.60205078 20.41015625 C-14.18350208 27.89503415 -18.98324737 35.20081271 -19.125 45.3125 C-19.53342885 51.92299658 -21.54965189 55.0458739 -26.23828125 59.609375 C-35.34697788 67.49413078 -44.82311752 73.88050717 -55.140625 80.05078125 C-61.31943329 83.76339716 -67.33667836 87.72037461 -73.36352539 91.6730957 C-84.72442799 99.11906931 -84.72442799 99.11906931 -89.8125 100.5 C-93.06198234 101.42012168 -96.22304371 102.41134954 -99.375 103.625 C-104.92856585 105.73152498 -109.07997408 106.0986671 -115 106 C-115.08857863 102.7085089 -115.1409104 99.41733195 -115.1875 96.125 C-115.21263672 95.2071875 -115.23777344 94.289375 -115.26367188 93.34375 C-115.34341694 85.79455034 -114.89759149 78.25000127 -109.6875 72.40625 C-108.800625 71.7771875 -107.91375 71.148125 -107 70.5 C-102.91507771 67.44575163 -99.06197273 64.33685627 -95.3125 60.875 C-92.22584475 58.0331786 -89.12567271 55.22723208 -85.9375 52.5 C-83.76668743 50.63930352 -81.78735425 48.76921569 -79.84765625 46.6640625 C-71.19937806 37.31068343 -60.66938955 31.58732515 -48.80859375 27.20703125 C-39.21557053 23.08429943 -30.15490291 17.39877268 -21.3125 11.875 C-16.5561529 8.90834983 -11.73634096 6.11361549 -6.8125 3.4375 C-6.16385986 3.07833496 -5.51521973 2.71916992 -4.84692383 2.34912109 C-3.26398141 1.50192439 -1.63475845 0.742303 0 0 Z " fill="#DDDDDD" transform="translate(268,157)"/>
<path d="M0 0 C-1.56111457 5.9891817 -4.76838384 10.71994637 -8.0625 15.875 C-12.04192084 22.20390853 -15.98245535 28.53272661 -19.625 35.0625 C-19.97506104 35.68914551 -20.32512207 36.31579102 -20.68579102 36.96142578 C-22.71837264 40.62664585 -24.70546283 44.31477639 -26.6796875 48.01171875 C-31.85807589 57.66222866 -37.16358579 66.42401199 -44 75 C-46.18328834 77.86257976 -48.34155641 80.74366484 -50.5 83.625 C-51.02907959 84.3252832 -51.55815918 85.02556641 -52.10327148 85.74707031 C-52.59512939 86.40030273 -53.0869873 87.05353516 -53.59375 87.7265625 C-54.25407227 88.60175537 -54.25407227 88.60175537 -54.92773438 89.49462891 C-56.07845626 91.02803085 -56.07845626 91.02803085 -57 93 C-62.06716834 94.68905611 -67.39486842 94.96873768 -72.6875 95.5625 C-73.90091064 95.69889893 -75.11432129 95.83529785 -76.36450195 95.97583008 C-85.2967761 96.92918486 -94.02395905 97.37113799 -103 97 C-102.29440206 92.99273622 -101.14284817 90.46152397 -99 87 C-98.2840421 85.30604773 -97.56812401 83.6120786 -96.85253906 81.91796875 C-95.44047431 78.74122742 -93.76775034 75.71312983 -92.0625 72.6875 C-91.67481445 71.99873779 -91.28712891 71.30997559 -90.88769531 70.6003418 C-87.43532567 64.5722549 -83.65460622 58.79632093 -79.70947266 53.08056641 C-76.91982773 49.00968674 -74.35949159 44.92123542 -72.01171875 40.578125 C-65.02541886 27.87647541 -58.35518948 21.18072307 -45.19189453 15.05517578 C-43.22237933 14.10705318 -41.38550434 13.08094031 -39.52734375 11.93359375 C-32.02573864 7.39090241 -24.77569433 5.50984065 -16.26171875 3.921875 C-13.26079123 3.34374607 -10.54919966 2.51303509 -7.70703125 1.390625 C-4 0 -4 0 0 0 Z " fill="#DDDDDD" transform="translate(424,153)"/>
<path d="M0 0 C0.99 -0.01998047 1.98 -0.03996094 3 -0.06054688 C12.24234129 -0.05445034 18.67763344 2.94458621 26.375 7.875 C27.25671875 8.43058594 28.1384375 8.98617187 29.046875 9.55859375 C36.29169588 14.83853139 36.29169588 14.83853139 37.08154297 18.62768555 C37.26490069 21.29260568 37.26612011 23.89246708 37.1875 26.5625 C37.17017822 27.50810791 37.15285645 28.45371582 37.13500977 29.42797852 C36.89735249 36.44703196 35.85235737 42.15019861 32.625 48.4375 C32.01515336 49.69184752 31.40722195 50.94712726 30.80078125 52.203125 C29.1236243 55.64055087 27.38875178 59.04376413 25.625 62.4375 C22.64130215 61.08915312 20.50870564 59.56047761 18.1328125 57.3203125 C12.98552846 52.71660454 7.2814034 49.0650919 1.5 45.3125 C-11.20750367 37.03172721 -11.20750367 37.03172721 -16.375 32.4375 C-17.07367188 31.86128906 -17.77234375 31.28507812 -18.4921875 30.69140625 C-22.79156878 26.55444604 -23.90908416 23.35713895 -24.125 17.375 C-23.85126958 12.3619763 -23.26631318 8.74324982 -20.15234375 4.76953125 C-13.82759423 0.02944425 -7.63928966 -0.05428436 0 0 Z " fill="#DDDDDD" transform="translate(221.375,58.5625)"/>
<path d="M0 0 C0.66 0 1.32 0 2 0 C1.44241099 6.59813657 0.20416773 12.55656496 -1.75 18.875 C-2.150979 20.19153564 -2.150979 20.19153564 -2.56005859 21.53466797 C-4.29559146 27.09764306 -6.29119087 32.39366475 -8.8515625 37.63671875 C-10.40324533 40.82980756 -11.67551507 44.11130142 -12.97265625 47.4140625 C-14.09123371 50.2296453 -15.26134345 53.02050221 -16.4375 55.8125 C-18.22439337 60.07692651 -19.92027914 64.36533589 -21.5625 68.6875 C-22.9618076 72.36942813 -24.4103968 75.98724541 -26.0625 79.5625 C-28.09144361 84.00490475 -29.56380923 88.58429777 -31.06640625 93.2265625 C-32.19228917 96.5712356 -33.61012912 99.75696795 -35 103 C-35.63706716 104.89181248 -36.26072583 106.78816426 -36.875 108.6875 C-38.56265184 113.8399522 -40.52062357 118.80668703 -42.64453125 123.79296875 C-44.16320638 127.38614534 -45.61887652 131.00119192 -47.0625 134.625 C-47.44595581 135.58515015 -47.44595581 135.58515015 -47.8371582 136.56469727 C-48.92987685 139.30336965 -50.01724484 142.04397434 -51.09375 144.7890625 C-53.20859852 150.16145996 -55.51571425 155.41616534 -57.94921875 160.65234375 C-59.07975468 163.07437554 -59.07975468 163.07437554 -60 166 C-61.94140625 167.5859375 -61.94140625 167.5859375 -64.5625 169.375 C-76.76103136 178.00245871 -88.08083605 187.81595411 -99.36767578 197.58935547 C-102.23700728 200.06901407 -105.11894151 202.53398642 -108 205 C-103.56407127 193.51998074 -98.29023178 188.01675032 -88.05102539 181.55688477 C-74.53996778 173.01553822 -58.19795365 160.95611082 -53.41015625 145.0390625 C-52.97682784 142.88480127 -52.90092386 140.94456812 -52.9375 138.75 C-52.958125 137.5125 -52.97875 136.275 -53 135 C-56.20802255 133.39598872 -59.51973123 133.50836352 -63 134 C-66.34752558 135.81378992 -66.34752558 135.81378992 -69 138 C-69.66 138.33 -70.32 138.66 -71 139 C-70.10619215 136.04355863 -69.24052314 133.39358332 -67.625 130.75 C-66.26183101 128.44309863 -65.40195972 126.49500813 -64.484375 124.0078125 C-61.10648665 115.45400269 -56.76732956 107.32624595 -52.625 99.125 C-51.77826931 97.44159558 -50.93191254 95.75800304 -50.0859375 94.07421875 C-43.73039201 81.43111935 -43.73039201 81.43111935 -41.15380859 76.37133789 C-38.62151834 71.37319213 -36.25832873 66.46488517 -34.375 61.1875 C-33.09098895 57.73338721 -31.84218176 54.46967678 -29.9375 51.3125 C-28.41130873 48.70320524 -27.40472047 46.54221876 -26.375 43.75 C-20.45771892 28.65863972 -11.99750921 15.65507495 -2 3 C-1.34 2.01 -0.68 1.02 0 0 Z " fill="#D9D9D9" transform="translate(393,26)"/>
<path d="M0 0 C0.42889667 9.30467499 0.12687527 18.04895582 -1.8125 27.1875 C-1.97782227 27.97616455 -2.14314453 28.7648291 -2.31347656 29.57739258 C-4.82147544 40.59534811 -4.82147544 40.59534811 -9.9140625 43.87890625 C-11.14317419 44.457132 -12.38098676 45.01707208 -13.625 45.5625 C-15.06636789 46.24081071 -16.50637992 46.92200708 -17.9453125 47.60546875 C-18.74356445 47.97978027 -19.54181641 48.3540918 -20.36425781 48.73974609 C-25.46364229 51.17796605 -30.48055436 53.7771472 -35.5 56.375 C-36.57080811 56.92760498 -37.64161621 57.48020996 -38.74487305 58.04956055 C-45.86053155 61.76526796 -52.73443227 65.72679072 -59.40625 70.19287109 C-60.90347609 71.18210976 -62.44752158 72.0999501 -64 73 C-64.66 72.67 -65.32 72.34 -66 72 C-62.01713345 66.32111349 -58.01779344 60.65423433 -54 55 C-53.5040332 54.30165039 -53.00806641 53.60330078 -52.49707031 52.88378906 C-51.10960531 50.93791925 -49.71282452 48.9991298 -48.3125 47.0625 C-47.9105542 46.49781006 -47.5086084 45.93312012 -47.09448242 45.35131836 C-40.19205308 35.87023011 -31.78053699 27.59394084 -23.5065918 19.32128906 C-21.93052089 17.74301111 -20.3626689 16.15685394 -18.79492188 14.5703125 C-4.30696133 0 -4.30696133 0 0 0 Z " fill="#D9D9D9" transform="translate(446,80)"/>
<path d="M0 0 C0.928125 0.00322266 1.85625 0.00644531 2.8125 0.00976562 C3.76382813 0.01814453 4.71515625 0.02652344 5.6953125 0.03515625 C6.66984375 0.03966797 7.644375 0.04417969 8.6484375 0.04882812 C11.03912684 0.06054719 13.4296869 0.07695406 15.8203125 0.09765625 C12.49755723 2.31282643 9.18158198 3.44189099 5.42578125 4.671875 C4.32188805 5.03906143 4.32188805 5.03906143 3.19569397 5.41366577 C0.80120078 6.20867226 -1.59542128 6.99703176 -3.9921875 7.78515625 C-5.63517978 8.32907806 -7.2780832 8.87326832 -8.92089844 9.41772461 C-18.75052246 12.66925279 -28.59385126 15.87688161 -38.47973633 18.95385742 C-42.79416642 20.30258868 -47.03282058 21.76223685 -51.25488281 23.37670898 C-54.36611774 24.54204089 -57.52300085 25.56311188 -60.6796875 26.59765625 C-65.16937705 28.07974307 -69.63459381 29.59299894 -74.046875 31.29296875 C-76.9717325 32.39648642 -79.92016 33.4298619 -82.8671875 34.47265625 C-89.68308947 36.90485706 -96.44657545 39.44567117 -103.1796875 42.09765625 C-104.12972656 42.47116211 -105.07976562 42.84466797 -106.05859375 43.22949219 C-109.37174635 44.534826 -112.68226171 45.84666326 -115.9921875 47.16015625 C-117.06637939 47.58385498 -118.14057129 48.00755371 -119.24731445 48.4440918 C-123.7889048 50.25415872 -128.27071834 52.07643492 -132.62890625 54.296875 C-135.48566769 55.74568361 -138.13598564 56.89649942 -141.1796875 57.84765625 C-141.9428125 58.09 -142.7059375 58.33234375 -143.4921875 58.58203125 C-144.0490625 58.7521875 -144.6059375 58.92234375 -145.1796875 59.09765625 C-143.41371276 51.22645455 -143.41371276 51.22645455 -140.66796875 48.71484375 C-138.87514709 47.69152532 -137.09423876 46.86824327 -135.1796875 46.09765625 C-134.0659375 45.60265625 -132.9521875 45.10765625 -131.8046875 44.59765625 C-130.6084375 44.10265625 -129.4121875 43.60765625 -128.1796875 43.09765625 C-126.82387719 42.49718716 -125.46983276 41.8927215 -124.1171875 41.28515625 C-107.142769 33.73775722 -107.142769 33.73775722 -99.3046875 30.97265625 C-95.41958904 29.60011052 -91.83044008 27.98882392 -88.1796875 26.08984375 C-85.20102983 24.6121503 -82.12781197 23.42166095 -79.03125 22.21484375 C-77.01858704 21.426321 -75.01401423 20.61699592 -73.015625 19.79296875 C-24.39644977 -0.15059537 -24.39644977 -0.15059537 0 0 Z " fill="#D4D4D4" transform="translate(585.1796875,74.90234375)"/>
<path d="M0 0 C6.28761959 4.94982819 11.09126667 10.70236151 16 17 C16.60328125 17.70898438 17.2065625 18.41796875 17.828125 19.1484375 C18.21484375 19.75945312 18.6015625 20.37046875 19 21 C18 24 18 24 16.4597168 25.06811523 C15.79625244 25.39497314 15.13278809 25.72183105 14.44921875 26.05859375 C13.69801758 26.43846436 12.94681641 26.81833496 12.17285156 27.2097168 C11.35268555 27.61488525 10.53251953 28.02005371 9.6875 28.4375 C2.51813528 32.07876825 -4.4030338 35.97240069 -11.25 40.1875 C-32.18680368 53 -32.18680368 53 -38 53 C-36.54166166 49.67199712 -34.68768646 47.43328915 -32.1875 44.8125 C-21.84390198 33.50283324 -13.02568439 21.03130875 -5 8 C-3.97967432 6.3746812 -2.95893483 4.74962198 -1.9375 3.125 C-0.9784375 1.578125 -0.9784375 1.578125 0 0 Z " fill="#D9D9D9" transform="translate(248,130)"/>
<path d="M0 0 C1 2 1 2 0.51855469 3.72070312 C0.09944824 4.74067383 0.09944824 4.74067383 -0.328125 5.78125 C-0.63202148 6.53623779 -0.93591797 7.29122559 -1.24902344 8.0690918 C-1.74450684 9.27239136 -1.74450684 9.27239136 -2.25 10.5 C-4.57105645 16.27696573 -6.7135725 21.9877679 -8.39453125 27.98828125 C-9.33106337 31.09998475 -10.7145951 34.01786063 -12 37 C-13.3862518 40.98296259 -14.70202876 44.98748992 -16 49 C-25.0981625 49.4367118 -32.86389984 49.69324514 -41 45 C-43 43 -43 43 -43.1875 39.9375 C-41.67749165 31.5543502 -31.25087948 25.44013526 -25.03125 20.4609375 C-21.56374085 17.64582053 -18.18843428 14.73608702 -14.8125 11.8125 C-10.01169636 7.6654339 -5.15228565 3.70964567 0 0 Z " fill="#D9D9D9" transform="translate(328,201)"/>
<path d="M0 0 C-4.97471116 6.01110932 -13.11552681 7.423581 -20.375 9.375 C-21.96354291 9.8098913 -23.55208454 10.24478726 -25.140625 10.6796875 C-26.76037023 11.11996253 -28.38016154 11.56006809 -30 12 C-40.64003166 14.89898428 -51.2167273 17.91854956 -61.72167969 21.27587891 C-64.32466774 22.10318951 -66.9317301 22.91695613 -69.5390625 23.73046875 C-71.48443533 24.34095362 -73.42974821 24.95162956 -75.375 25.5625 C-76.27831055 25.84335449 -77.18162109 26.12420898 -78.11230469 26.41357422 C-82.35139622 27.75219377 -86.50437188 29.16845724 -90.61328125 30.8671875 C-97.11677049 33.52579453 -103.80748415 35.62548037 -110.48318481 37.8013916 C-132.14140122 44.87825716 -153.67399043 52.42089663 -174.45922852 61.80371094 C-179.68180411 64.1060653 -179.68180411 64.1060653 -183 63 C-156.38030389 51.19596881 -129.27244954 40.37374831 -101.53027344 31.48339844 C-97.2683956 30.11710464 -93.09357907 28.6695437 -88.94921875 26.9765625 C-83.44573124 24.72986686 -77.83078642 23.00531199 -72.14453125 21.2890625 C-68.0833886 20.04051286 -64.13560814 18.68380488 -60.20703125 17.0625 C-54.3158669 14.65616923 -48.27763987 12.8309757 -42.1875 11 C-40.55844727 10.505 -40.55844727 10.505 -38.89648438 10 C-36.70671538 9.33462212 -34.51644915 8.6708784 -32.32568359 8.00878906 C-27.86765275 6.65652189 -23.41664477 5.28183599 -18.96606445 3.90527344 C-5.52428583 -0.19729592 -5.52428583 -0.19729592 0 0 Z " fill="#C2C2C2" transform="translate(623,76)"/>
<path d="M0 0 C0.92097539 7.06081133 -1.91826862 11.37815143 -6 17 C-14.5857024 27.6626247 -24.81492041 36.19596158 -36 44 C-36 40.76896776 -35.56111849 39.88941424 -33.953125 37.19921875 C-33.3034375 36.10383789 -33.3034375 36.10383789 -32.640625 34.98632812 C-31.95226562 33.8484082 -31.95226562 33.8484082 -31.25 32.6875 C-30.8065625 31.94048828 -30.363125 31.19347656 -29.90625 30.42382812 C-26.09165093 24.03437468 -22.00806802 17.90858356 -17.5625 11.9375 C-16.45068359 10.43509766 -16.45068359 10.43509766 -15.31640625 8.90234375 C-10.43872398 2.79084641 -7.88273659 -0.17136384 0 0 Z " fill="#D4D4D4" transform="translate(337,163)"/>
<path d="M0 0 C0.33 0 0.66 0 1 0 C2.95073538 6.17732869 0.55541861 10.42743606 -2 16 C-2.66708984 17.47726563 -2.66708984 17.47726563 -3.34765625 18.984375 C-4.20656346 20.8774766 -5.0730806 22.76715485 -5.94921875 24.65234375 C-7.07975468 27.07437554 -7.07975468 27.07437554 -8 30 C-9.94140625 31.5859375 -9.94140625 31.5859375 -12.5625 33.375 C-24.76103136 42.00245871 -36.08083605 51.81595411 -47.36767578 61.58935547 C-50.23700728 64.06901407 -53.11894151 66.53398642 -56 69 C-51.56407127 57.51998074 -46.29023178 52.01675032 -36.05102539 45.55688477 C-22.49055868 36.98430305 -5.09747629 24.4820789 -1.32421875 8.05859375 C-0.8208346 5.37730268 -0.37742764 2.70158728 0 0 Z " fill="#C4C4C4" transform="translate(341,162)"/>
<path d="M0 0 C1 2 1 2 0.0625 5.375 C-2.45042386 10.78057843 -7.53405084 12.08219589 -12.78125 14.03515625 C-13.8021875 14.41542969 -14.823125 14.79570312 -15.875 15.1875 C-16.97714844 15.59742188 -18.07929688 16.00734375 -19.21484375 16.4296875 C-24.57745559 18.55392339 -29.66346808 21.31213777 -34.73193359 24.0534668 C-39.01142106 26.29571322 -42.03241581 27.5274614 -47 27 C-43.57073268 23.10109142 -39.69236932 20.92976449 -35.1875 18.5 C-34.41792969 18.07855713 -33.64835937 17.65711426 -32.85546875 17.22290039 C-22.00065132 11.31350858 -11.05475078 5.52737539 0 0 Z " fill="#CCCCCC" transform="translate(436,128)"/>
<path d="M0 0 C0 4.03168977 -1.54430388 5.64059 -3.8046875 8.96875 C-4.62031613 10.18381253 -5.43565293 11.39907099 -6.25073242 12.61450195 C-6.68002045 13.24957672 -7.10930847 13.88465149 -7.55160522 14.53897095 C-15.50378287 26.32264403 -22.79309872 38.18729634 -29 51 C-30.36580637 46.90258089 -28.84738823 44.32436334 -27.3125 40.5 C-26.7482106 39.04966867 -26.18440986 37.59914713 -25.62109375 36.1484375 C-25.34249512 35.43913086 -25.06389648 34.72982422 -24.77685547 33.99902344 C-23.76316922 31.39058125 -22.81524171 28.76069763 -21.875 26.125 C-21.5553125 25.26648438 -21.235625 24.40796875 -20.90625 23.5234375 C-20.29332425 21.81675633 -19.73182061 20.09087188 -19.21875 18.3515625 C-16.78774421 10.85596133 -12.63865157 7.93517554 -6 4 C-4.78661779 3.19505944 -3.57722073 2.3840175 -2.375 1.5625 C-1.59125 1.046875 -0.8075 0.53125 0 0 Z " fill="#D0D0D0" transform="translate(352,184)"/>
<path d="M0 0 C2 1 2 1 3 3 C1.52128418 3.49028687 1.52128418 3.49028687 0.01269531 3.99047852 C-8.75691036 6.89967793 -17.52295406 9.81931417 -26.28419495 12.75361633 C-30.36747289 14.12103155 -34.45319921 15.4802223 -38.54296875 16.828125 C-46.59311219 19.52537823 -54.46636099 22.57277299 -62.3203125 25.79296875 C-63.15669754 26.13532059 -63.99308258 26.47767242 -64.85481262 26.83039856 C-69.10977058 28.57467791 -73.35852631 30.33225981 -77.59936523 32.1105957 C-79.17163153 32.76142548 -80.74397518 33.41206843 -82.31640625 34.0625 C-83.04671051 34.37354172 -83.77701477 34.68458344 -84.52944946 35.00505066 C-89.66051698 37.11316101 -89.66051698 37.11316101 -93 36 C-64.6202768 23.41551607 -35.69543181 12.05673256 -6.07006836 2.73925781 C-3.94028165 2.03684192 -3.94028165 2.03684192 -1.85375977 0.84667969 C-1.24201904 0.56727539 -0.63027832 0.28787109 0 0 Z " fill="#909090" transform="translate(533,103)"/>
<path d="M0 0 C0.66 0 1.32 0 2 0 C2.62027591 6.94709018 1.31769145 10.57422844 -3 16 C-7.16354833 20.82653373 -11.45481806 25.52908574 -16 30 C-15.81888682 18.95209594 -9.67485798 11.42288495 -2.3828125 3.55859375 C-0.90796882 2.03183043 -0.90796882 2.03183043 0 0 Z " fill="#CBCBCB" transform="translate(268,173)"/>
<path d="M0 0 C-3.37932034 2.25288023 -5.94098415 2.81709701 -9.8984375 3.69140625 C-10.90639877 3.91666237 -10.90639877 3.91666237 -11.9347229 4.14646912 C-14.0802176 4.62440214 -16.22753802 5.09349469 -18.375 5.5625 C-19.81262592 5.88159467 -21.2501275 6.20125009 -22.6875 6.52148438 C-28.11586933 7.72696287 -33.54307715 8.9295187 -39 10 C-39.33 8.35 -39.66 6.7 -40 5 C-36.23034754 4.34715009 -32.45909099 3.70404785 -28.6875 3.0625 C-27.63498047 2.88009766 -26.58246094 2.69769531 -25.49804688 2.50976562 C-17.0282307 1.07641212 -8.60534567 -0.09129066 0 0 Z " fill="#C9C9C9" transform="translate(668,68)"/>
<path d="M0 0 C0.33 0 0.66 0 1 0 C2.95073538 6.17732869 0.55541861 10.42743606 -2 16 C-2.44472656 16.98484375 -2.88945312 17.9696875 -3.34765625 18.984375 C-4.20656346 20.8774766 -5.0730806 22.76715485 -5.94921875 24.65234375 C-7.07975468 27.07437554 -7.07975468 27.07437554 -8 30 C-10.36328125 32.0078125 -10.36328125 32.0078125 -13.3125 34.125 C-14.27800781 34.82882813 -15.24351562 35.53265625 -16.23828125 36.2578125 C-18.6288759 37.76588211 -20.24794645 38.56856168 -23 39 C-20.08627975 34.89090734 -17.16147288 31.03641413 -13.5 27.5625 C-5.59413643 19.86652662 -1.13689181 10.91416142 0 0 Z " fill="#A7A7A7" transform="translate(341,162)"/>
<path d="M0 0 C-1.98 0.99 -1.98 0.99 -4 2 C-3.505 2.99 -3.505 2.99 -3 4 C-7.12481515 5.27143382 -11.24988602 6.54203609 -15.375 7.8125 C-17.10943359 8.34713867 -17.10943359 8.34713867 -18.87890625 8.89257812 C-21.16806418 9.59743184 -23.45809488 10.29945781 -25.74902344 10.99853516 C-27.82985152 11.63953522 -29.90654831 12.29420451 -31.97753906 12.96630859 C-32.8640918 13.24941895 -33.75064453 13.5325293 -34.6640625 13.82421875 C-35.43443848 14.07647217 -36.20481445 14.32872559 -36.99853516 14.58862305 C-39 15 -39 15 -42 14 C-37.54732426 10.95628453 -32.92263616 9.58230991 -27.8125 8.0625 C-21.06179084 5.9983766 -14.51390631 3.72826938 -8 1 C-2.28571429 -1.14285714 -2.28571429 -1.14285714 0 0 Z " fill="#BCBCBC" transform="translate(576,90)"/>
<path d="M0 0 C1.98 0.66 3.96 1.32 6 2 C2.45960866 4.9156164 -1.1626772 7.50127818 -5 10 C-5.66 9.67 -6.32 9.34 -7 9 C-4.69 6.03 -2.38 3.06 0 0 Z " fill="#BABABA" transform="translate(375,159)"/>
<path d="M0 0 C0.86625 0.185625 1.7325 0.37125 2.625 0.5625 C-0.79666518 5.26728962 -4.95405197 8.83903164 -9.375 12.5625 C-9.375 6.88814662 -5.67919543 0.94653257 0 0 Z " fill="#B8B8B8" transform="translate(371.375,250.4375)"/>
<path d="M0 0 C0 0.99 0 1.98 0 3 C-4.53701494 4.45184478 -8.18061476 5.23509196 -13 5 C-12.67 4.01 -12.34 3.02 -12 2 C-7.9083139 0.19204568 -4.44280672 -0.21156222 0 0 Z " fill="#CFCFCF" transform="translate(600,83)"/>
<path d="M0 0 C-7.15708391 4.77138927 -14.7732301 4.13790836 -23 3 C-23 2.67 -23 2.34 -23 2 C-20.10452736 1.66324721 -17.20868928 1.33048266 -14.3125 1 C-13.49587891 0.90460938 -12.67925781 0.80921875 -11.83789062 0.7109375 C-7.87139948 0.26129478 -3.99997537 -0.13034543 0 0 Z " fill="#8F8F8F" transform="translate(668,68)"/>
<path d="M0 0 C0.33 0.66 0.66 1.32 1 2 C1.66 2.33 2.32 2.66 3 3 C0.36 8.28 -2.28 13.56 -5 19 C-6.4216868 14.73493961 -4.65386682 11.79962257 -3.0625 7.8125 C-2.77181641 7.06291016 -2.48113281 6.31332031 -2.18164062 5.54101562 C-1.46274964 3.69075523 -0.73245347 1.84493352 0 0 Z " fill="#9D9D9D" transform="translate(328,216)"/>
<path d="M0 0 C-1.98 0.99 -1.98 0.99 -4 2 C-3.67 2.66 -3.34 3.32 -3 4 C-4.28926992 4.36279456 -5.58153272 4.71496698 -6.875 5.0625 C-7.59429688 5.25972656 -8.31359375 5.45695312 -9.0546875 5.66015625 C-11 6 -11 6 -13 5 C-14.32860925 4.64830932 -15.66158328 4.31229724 -17 4 C-14.7988116 3.26627053 -12.59745012 2.53321185 -10.39453125 1.8046875 C-8.44077065 1.14812195 -6.49953686 0.45437704 -4.5625 -0.25 C-2 -1 -2 -1 0 0 Z " fill="#A5A5A5" transform="translate(576,90)"/>
<path d="M0 0 C0.66 0.33 1.32 0.66 2 1 C-3.28 6.28 -8.56 11.56 -14 17 C-14 14 -14 14 -12.0625 11.875 C-11.04193705 10.91637873 -10.02104697 9.95810572 -9 9 C-7.39180447 7.39987234 -5.78787582 5.79544858 -4.1875 4.1875 C-2.09375 2.09375 -2.09375 2.09375 0 0 Z " fill="#1B1B1B" transform="translate(296,220)"/>
<path d="M0 0 C0.23828125 2.2890625 0.23828125 2.2890625 0 5 C-1.64453125 6.8359375 -1.64453125 6.8359375 -3.8125 8.375 C-4.87404297 9.16003906 -4.87404297 9.16003906 -5.95703125 9.9609375 C-6.63121094 10.30382812 -7.30539062 10.64671875 -8 11 C-8.99 10.67 -9.98 10.34 -11 10 C-9.35718838 8.33035479 -7.71067239 6.6643536 -6.0625 5 C-5.14597656 4.071875 -4.22945313 3.14375 -3.28515625 2.1875 C-1 0 -1 0 0 0 Z " fill="#D0D0D0" transform="translate(333,187)"/>
<path d="M0 0 C-0.99 0.495 -0.99 0.495 -2 1 C-1.34 1.66 -0.68 2.32 0 3 C-2.97 3.66 -5.94 4.32 -9 5 C-9.33 3.35 -9.66 1.7 -10 0 C-6.33694766 -0.74926071 -3.57644848 -1.2380014 0 0 Z " fill="#A7A7A7" transform="translate(638,73)"/>
<path d="M0 0 C0.33 0.66 0.66 1.32 1 2 C-8.41002278 5.44419134 -8.41002278 5.44419134 -13 5 C-13 4.34 -13 3.68 -13 3 C-11.21189234 2.30329584 -9.41937948 1.61788811 -7.625 0.9375 C-6.62726562 0.55464844 -5.62953125 0.17179687 -4.6015625 -0.22265625 C-2 -1 -2 -1 0 0 Z " fill="#9E9E9E" transform="translate(535,104)"/>
<path d="M0 0 C0.66 0.33 1.32 0.66 2 1 C-0.31 3.64 -2.62 6.28 -5 9 C-7 6 -7 6 -7 3 C-4.69631264 1.93347808 -2.35981813 0.93578995 0 0 Z " fill="#A8A8A8" transform="translate(280,151)"/>
<path d="M0 0 C0.99 0.33 1.98 0.66 3 1 C1.25 4.875 1.25 4.875 -1 6 C-2.99960012 6.039992 -5.00047242 6.04346799 -7 6 C-4.74259377 3.66475218 -2.7194239 1.81294927 0 0 Z " fill="#C3C3C3" transform="translate(396,149)"/>
<path d="M0 0 C0.66 0.33 1.32 0.66 2 1 C-0.49825283 4.21203935 -3.0702992 7.17493137 -6 10 C-6.99 9.34 -7.98 8.68 -9 8 C-6.03 5.36 -3.06 2.72 0 0 Z " fill="#B9B9B9" transform="translate(321,195)"/>
<path d="M0 0 C-5.445 2.475 -5.445 2.475 -11 5 C-11.33 4.01 -11.66 3.02 -12 2 C-10.75579353 1.4654744 -9.50429064 0.94791389 -8.25 0.4375 C-7.55390625 0.14746094 -6.8578125 -0.14257812 -6.140625 -0.44140625 C-4 -1 -4 -1 0 0 Z " fill="#A0A0A0" transform="translate(603,91)"/>
<path d="M0 0 C-2.90092502 1.93395001 -3.89674737 2.30131941 -7.1875 2.625 C-8.445625 2.74875 -9.70375 2.8725 -11 3 C-7.33656583 -0.66343417 -5.03532623 -1.39870173 0 0 Z " fill="#D7D7D7" transform="translate(581,90)"/>
<path d="M0 0 C0.66 0.66 1.32 1.32 2 2 C-1.82320557 3.42258812 -4.91281305 4.24042276 -9 4 C-8 2 -8 2 -6.22265625 1.296875 C-5.15337891 1.02617188 -5.15337891 1.02617188 -4.0625 0.75 C-2.99708984 0.46382813 -2.99708984 0.46382813 -1.91015625 0.171875 C-1.27980469 0.11515625 -0.64945313 0.0584375 0 0 Z " fill="#D2D2D2" transform="translate(563,94)"/>
<path d="M0 0 C0.66 0.33 1.32 0.66 2 1 C-0.64 3.64 -3.28 6.28 -6 9 C-6 6 -6 6 -3.5625 3.375 C-2.716875 2.59125 -1.87125 1.8075 -1 1 C-0.67 0.67 -0.34 0.34 0 0 Z " fill="#B0B0B0" transform="translate(206,60)"/>
</svg>
